<svg xmlns="http://www.w3.org/2000/svg" style="display:none">
  <!-- Star -->
  <symbol id="ico-star" viewBox="0 0 24 24"><path fill="#c8a830" d="M12 2l3.09 6.26L22 9.27l-5 4.87L18.18 22 12 18.27 5.82 22 7 14.14l-5-4.87 6.91-1.01z"/></symbol>
  <!-- Star (empty) -->
  <symbol id="ico-star-empty" viewBox="0 0 24 24"><path fill="none" stroke="#6a6a8a" stroke-width="1.5" d="M12 2l3.09 6.26L22 9.27l-5 4.87L18.18 22 12 18.27 5.82 22 7 14.14l-5-4.87 6.91-1.01z"/></symbol>
  <!-- Play -->
  <symbol id="ico-play" viewBox="0 0 24 24"><path fill="currentColor" d="M8 5v14l11-7z"/></symbol>
  <!-- Hint / lightbulb -->
  <symbol id="ico-hint" viewBox="0 0 24 24"><path fill="#6a9ec0" d="M9 21c0 .5.4 1 1 1h4c.6 0 1-.5 1-1v-1H9v1zm3-19C8.1 2 5 5.1 5 9c0 2.4 1.2 4.5 3 5.7V17c0 .5.4 1 1 1h6c.6 0 1-.5 1-1v-2.3c1.8-1.3 3-3.4 3-5.7 0-3.9-3.1-7-7-7z"/></symbol>
  <!-- Calendar -->
  <symbol id="ico-calendar" viewBox="0 0 24 24"><path d="M19 3h-1V1h-2v2H8V1H6v2H5c-1.1 0-2 .9-2 2v14c0 1.1.9 2 2 2h14c1.1 0 2-.9 2-2V5c0-1.1-.9-2-2-2zm0 16H5V8h14v11zM9 10H7v2h2v-2zm4 0h-2v2h2v-2zm4 0h-2v2h2v-2z"/></symbol>
  <!-- Speaker -->
  <symbol id="ico-speaker" viewBox="0 0 24 24"><path d="M3 9v6h4l5 5V4L7 9H3zm13.5 3c0-1.8-1-3.3-2.5-4v8c1.5-.7 2.5-2.2 2.5-4zM14 3.2v2.1c2.9.9 5 3.5 5 6.7s-2.1 5.8-5 6.7v2.1c4-.9 7-4.5 7-8.8s-3-7.9-7-8.8z"/></symbol>
  <!-- Copy -->
  <symbol id="ico-copy" viewBox="0 0 24 24"><path d="M16 1H4c-1.1 0-2 .9-2 2v14h2V3h12V1zm3 4H8c-1.1 0-2 .9-2 2v14c0 1.1.9 2 2 2h11c1.1 0 2-.9 2-2V7c0-1.1-.9-2-2-2zm0 16H8V7h11v14z"/></symbol>
</svg>
