<svg xmlns="http://www.w3.org/2000/svg" width="200" height="200" viewBox="0 0 200 200" opacity="0.1">
  <!-- Flag -->
  <rect x="15" y="20" width="2" height="120" fill="#e8e8f0"/>
  <rect x="17" y="20" width="60" height="40" fill="#1a2a5a"/>
  <!-- Stripes -->
  <rect x="17" y="60" width="60" height="5" fill="#b02020"/>
  <rect x="17" y="70" width="60" height="5" fill="#b02020"/>
  <rect x="17" y="80" width="60" height="5" fill="#b02020"/>
  <rect x="17" y="90" width="60" height="5" fill="#b02020"/>
  <!-- Stars on blue -->
  <text x="22" y="35" font-size="8" fill="#e8e8f0">★</text>
  <text x="35" y="35" font-size="8" fill="#e8e8f0">★</text>
  <text x="48" y="35" font-size="8" fill="#e8e8f0">★</text>
  <text x="60" y="35" font-size="8" fill="#e8e8f0">★</text>
  <text x="28" y="48" font-size="8" fill="#e8e8f0">★</text>
  <text x="41" y="48" font-size="8" fill="#e8e8f0">★</text>
  <text x="54" y="48" font-size="8" fill="#e8e8f0">★</text>
  <!-- Firework burst 1 -->
  <circle cx="140" cy="40" r="3" fill="#b02020"/>
  <line x1="140" y1="40" x2="140" y2="15" stroke="#b02020" stroke-width="1.5"/>
  <line x1="140" y1="40" x2="158" y2="28" stroke="#e8e8f0" stroke-width="1"/>
  <line x1="140" y1="40" x2="122" y2="28" stroke="#e8e8f0" stroke-width="1"/>
  <line x1="140" y1="40" x2="160" y2="40" stroke="#1a2a5a" stroke-width="1"/>
  <line x1="140" y1="40" x2="120" y2="40" stroke="#1a2a5a" stroke-width="1"/>
  <line x1="140" y1="40" x2="155" y2="55" stroke="#b02020" stroke-width="1"/>
  <line x1="140" y1="40" x2="125" y2="55" stroke="#b02020" stroke-width="1"/>
  <!-- Firework burst 2 -->
  <circle cx="170" cy="120" r="2" fill="#e8e8f0"/>
  <line x1="170" y1="120" x2="170" y2="100" stroke="#e8e8f0" stroke-width="1"/>
  <line x1="170" y1="120" x2="185" y2="110" stroke="#b02020" stroke-width="1"/>
  <line x1="170" y1="120" x2="155" y2="110" stroke="#b02020" stroke-width="1"/>
  <line x1="170" y1="120" x2="188" y2="120" stroke="#1a2a5a" stroke-width="1"/>
  <line x1="170" y1="120" x2="152" y2="120" stroke="#1a2a5a" stroke-width="1"/>
  <!-- Eagle silhouette -->
  <path d="M100,150 Q90,135 80,140 Q90,130 100,125 Q110,130 120,140 Q110,135 100,150Z" fill="#e8e8f0"/>
  <!-- Scattered stars -->
  <text x="90" y="185" font-size="14" fill="#e8e8f0">★</text>
  <text x="50" y="170" font-size="10" fill="#b02020">★</text>
  <text x="150" y="175" font-size="12" fill="#1a2a5a">★</text>
</svg>